<svg width="173" height="25" viewBox="0 0 173 25" fill="none" xmlns="http://www.w3.org/2000/svg">
<path d="M0 5.29545V0.727272H19.6705V5.29545H12.6136V24H7.06818V5.29545H0ZM31.304 16.4659V6.54545H36.8494V24H31.554V20.75H31.3722C30.9858 21.8182 30.3267 22.6667 29.3949 23.2955C28.4706 23.9167 27.3532 24.2273 26.0426 24.2273C24.8532 24.2273 23.8078 23.9545 22.9062 23.4091C22.0047 22.8636 21.304 22.1023 20.804 21.125C20.304 20.1402 20.0502 18.9886 20.0426 17.6705V6.54545H25.5994V16.5795C25.607 17.5265 25.857 18.2727 26.3494 18.8182C26.8419 19.3636 27.5123 19.6364 28.3608 19.6364C28.9138 19.6364 29.41 19.5152 29.8494 19.2727C30.2964 19.0227 30.6487 18.6629 30.9062 18.1932C31.1714 17.7159 31.304 17.1402 31.304 16.4659ZM50.2386 6.54545V10.6364H39.2273V6.54545H50.2386ZM41.5341 2.36364H47.0909V18.5114C47.0909 18.8523 47.1439 19.1288 47.25 19.3409C47.3636 19.5455 47.5265 19.6932 47.7386 19.7841C47.9508 19.8674 48.2045 19.9091 48.5 19.9091C48.7121 19.9091 48.9356 19.8902 49.1705 19.8523C49.4129 19.8068 49.5947 19.7689 49.7159 19.7386L50.5568 23.75C50.2917 23.8258 49.9167 23.9205 49.4318 24.0341C48.9545 24.1477 48.3826 24.2197 47.7159 24.25C46.4129 24.3106 45.2955 24.1591 44.3636 23.7955C43.4394 23.4242 42.7311 22.8485 42.2386 22.0682C41.7538 21.2879 41.5189 20.3068 41.5341 19.125V2.36364ZM61.0341 24.3295C59.2008 24.3295 57.625 23.9545 56.3068 23.2045C54.9962 22.447 53.9848 21.3939 53.2727 20.0455C52.5682 18.6894 52.2159 17.1174 52.2159 15.3295C52.2159 13.5341 52.5682 11.9621 53.2727 10.6136C53.9848 9.25758 54.9962 8.20454 56.3068 7.45454C57.625 6.69697 59.2008 6.31818 61.0341 6.31818C62.8674 6.31818 64.4394 6.69697 65.75 7.45454C67.0682 8.20454 68.0795 9.25758 68.7841 10.6136C69.4962 11.9621 69.8523 13.5341 69.8523 15.3295C69.8523 17.1174 69.4962 18.6894 68.7841 20.0455C68.0795 21.3939 67.0682 22.447 65.75 23.2045C64.4394 23.9545 62.8674 24.3295 61.0341 24.3295ZM61.0682 20.1364C61.7348 20.1364 62.2992 19.9318 62.7614 19.5227C63.2235 19.1136 63.5758 18.5455 63.8182 17.8182C64.0682 17.0909 64.1932 16.25 64.1932 15.2955C64.1932 14.3258 64.0682 13.4773 63.8182 12.75C63.5758 12.0227 63.2235 11.4545 62.7614 11.0455C62.2992 10.6364 61.7348 10.4318 61.0682 10.4318C60.3788 10.4318 59.7955 10.6364 59.3182 11.0455C58.8485 11.4545 58.4886 12.0227 58.2386 12.75C57.9962 13.4773 57.875 14.3258 57.875 15.2955C57.875 16.25 57.9962 17.0909 58.2386 17.8182C58.4886 18.5455 58.8485 19.1136 59.3182 19.5227C59.7955 19.9318 60.3788 20.1364 61.0682 20.1364ZM72.6989 24V6.54545H78.0966V9.72727H78.2784C78.5966 8.57576 79.1155 7.7197 79.8352 7.15909C80.5549 6.59091 81.392 6.30682 82.3466 6.30682C82.6042 6.30682 82.8693 6.32576 83.142 6.36364C83.4148 6.39394 83.6686 6.44318 83.9034 6.51136V11.3409C83.6383 11.25 83.2898 11.178 82.858 11.125C82.4337 11.072 82.0549 11.0455 81.7216 11.0455C81.0625 11.0455 80.4678 11.1932 79.9375 11.4886C79.4148 11.7765 79.0019 12.1818 78.6989 12.7045C78.4034 13.2197 78.2557 13.8258 78.2557 14.5227V24H72.6989Z" fill="#169962"/>
<path d="M83.5938 5.29545V0.727272H103.264V5.29545H96.2074V24H90.6619V5.29545H83.5938ZM104.199 24V6.54545H109.597V9.72727H109.778C110.097 8.57576 110.616 7.7197 111.335 7.15909C112.055 6.59091 112.892 6.30682 113.847 6.30682C114.104 6.30682 114.369 6.32576 114.642 6.36364C114.915 6.39394 115.169 6.44318 115.403 6.51136V11.3409C115.138 11.25 114.79 11.178 114.358 11.125C113.934 11.072 113.555 11.0455 113.222 11.0455C112.563 11.0455 111.968 11.1932 111.438 11.4886C110.915 11.7765 110.502 12.1818 110.199 12.7045C109.903 13.2197 109.756 13.8258 109.756 14.5227V24H104.199ZM121.932 24.2955C120.818 24.2955 119.83 24.1098 118.966 23.7386C118.11 23.3598 117.432 22.7917 116.932 22.0341C116.439 21.2689 116.193 20.3106 116.193 19.1591C116.193 18.1894 116.364 17.3712 116.705 16.7045C117.045 16.0379 117.515 15.4962 118.114 15.0795C118.712 14.6629 119.402 14.3485 120.182 14.1364C120.962 13.9167 121.795 13.7689 122.682 13.6932C123.674 13.6023 124.473 13.5076 125.08 13.4091C125.686 13.303 126.125 13.1553 126.398 12.9659C126.678 12.7689 126.818 12.4924 126.818 12.1364V12.0795C126.818 11.4962 126.617 11.0455 126.216 10.7273C125.814 10.4091 125.273 10.25 124.591 10.25C123.856 10.25 123.265 10.4091 122.818 10.7273C122.371 11.0455 122.087 11.4848 121.966 12.0455L116.841 11.8636C116.992 10.803 117.383 9.85606 118.011 9.02273C118.648 8.18182 119.519 7.52273 120.625 7.04545C121.739 6.56061 123.076 6.31818 124.636 6.31818C125.75 6.31818 126.777 6.45076 127.716 6.71591C128.655 6.97348 129.473 7.35227 130.17 7.85227C130.867 8.3447 131.405 8.95076 131.784 9.67045C132.17 10.3902 132.364 11.2121 132.364 12.1364V24H127.136V21.5682H127C126.689 22.1591 126.292 22.6591 125.807 23.0682C125.33 23.4773 124.765 23.7841 124.114 23.9886C123.47 24.1932 122.742 24.2955 121.932 24.2955ZM123.648 20.6591C124.246 20.6591 124.784 20.5379 125.261 20.2955C125.746 20.053 126.133 19.7197 126.42 19.2955C126.708 18.8636 126.852 18.3636 126.852 17.7955V16.1364C126.693 16.2197 126.5 16.2955 126.273 16.3636C126.053 16.4318 125.811 16.4962 125.545 16.5568C125.28 16.6174 125.008 16.6705 124.727 16.7159C124.447 16.7614 124.178 16.803 123.92 16.8409C123.398 16.9242 122.951 17.053 122.58 17.2273C122.216 17.4015 121.936 17.6288 121.739 17.9091C121.549 18.1818 121.455 18.5076 121.455 18.8864C121.455 19.4621 121.659 19.9015 122.068 20.2045C122.485 20.5076 123.011 20.6591 123.648 20.6591ZM143.909 24.3295C142.068 24.3295 140.489 23.9508 139.17 23.1932C137.86 22.4356 136.852 21.3826 136.148 20.0341C135.443 18.678 135.091 17.1098 135.091 15.3295C135.091 13.5417 135.443 11.9735 136.148 10.625C136.86 9.26894 137.871 8.21212 139.182 7.45454C140.5 6.69697 142.072 6.31818 143.898 6.31818C145.511 6.31818 146.917 6.60985 148.114 7.19318C149.318 7.77651 150.258 8.60227 150.932 9.67045C151.614 10.7311 151.973 11.9773 152.011 13.4091H146.818C146.712 12.5152 146.409 11.8144 145.909 11.3068C145.417 10.7992 144.773 10.5455 143.977 10.5455C143.333 10.5455 142.769 10.7273 142.284 11.0909C141.799 11.447 141.42 11.9773 141.148 12.6818C140.883 13.3788 140.75 14.2424 140.75 15.2727C140.75 16.303 140.883 17.1742 141.148 17.8864C141.42 18.5909 141.799 19.125 142.284 19.4886C142.769 19.8447 143.333 20.0227 143.977 20.0227C144.492 20.0227 144.947 19.9129 145.341 19.6932C145.742 19.4735 146.072 19.1515 146.33 18.7273C146.587 18.2955 146.75 17.7727 146.818 17.1591H152.011C151.958 18.5985 151.598 19.8561 150.932 20.9318C150.273 22.0076 149.345 22.8447 148.148 23.4432C146.958 24.0341 145.545 24.3295 143.909 24.3295ZM159.866 19.4205L159.889 12.7955H160.662L165.571 6.54545H171.866L164.571 15.5H163.105L159.866 19.4205ZM154.855 24V0.727272H160.412V24H154.855ZM165.696 24L161.128 16.75L164.787 12.8068L172.116 24H165.696Z" fill="white"/>
</svg>
